<svg width="80" height="80" fill="none" xmlns="http://www.w3.org/2000/svg"><path d="M54.93 77.838H25.049a1.081 1.081 0 0 1-1.062-.871l-7.286-36.888a1.081 1.081 0 0 1 1.061-1.29h44.455a1.08 1.08 0 0 1 1.06 1.29l-2.583 13.104a1.082 1.082 0 0 1-2.122-.42l2.33-11.812H19.077l6.86 34.725h28.108l.92-4.633a1.082 1.082 0 0 1 1.972-.405 1.084 1.084 0 0 1 .149.827l-1.093 5.503a1.082 1.082 0 0 1-1.063.87Z" fill="currentColor"/><path d="M57.514 64.768a1.08 1.08 0 0 1-1.062-1.289l.615-3.146a1.082 1.082 0 0 1 2.122.415l-.615 3.146a1.081 1.081 0 0 1-1.06.874ZM42.906 40.955a1.082 1.082 0 0 1-.874-1.712 27.281 27.281 0 0 0-2.044-34.439 27.279 27.279 0 0 0-2.042 34.433 1.082 1.082 0 0 1-1.75 1.273A29.444 29.444 0 0 1 39.225 2.48a1.114 1.114 0 0 1 1.53 0 29.442 29.442 0 0 1 3.028 38.031 1.08 1.08 0 0 1-.876.445Z" fill="currentColor"/><path d="M53.555 40.955a1.081 1.081 0 0 1-.55-2.013A27.298 27.298 0 0 0 66.47 15.794a27.116 27.116 0 0 0-17.434 7.923 1.08 1.08 0 0 1-1.779-.34 1.08 1.08 0 0 1 .248-1.187 29.274 29.274 0 0 1 20.01-8.61 1.078 1.078 0 0 1 1.111 1.051 29.463 29.463 0 0 1-14.524 26.174c-.166.098-.355.15-.547.15ZM26.445 40.955c-.192 0-.38-.052-.547-.15a29.462 29.462 0 0 1-14.524-26.174 1.09 1.09 0 0 1 .695-.983c.133-.05.274-.074.416-.069a29.28 29.28 0 0 1 19.986 8.583 1.08 1.08 0 0 1-1.528 1.529 27.116 27.116 0 0 0-17.413-7.902 27.298 27.298 0 0 0 13.465 23.153 1.081 1.081 0 0 1-.55 2.013ZM60.486 49.73H19.492a1.081 1.081 0 0 1 0-2.162h40.994a1.081 1.081 0 0 1 0 2.162Z" fill="currentColor"/></svg>