<svg width="80" height="80" fill="none" xmlns="http://www.w3.org/2000/svg"><path d="M26.649 77.405h-3.146a1.081 1.081 0 1 1 0-2.162h3.146a1.08 1.08 0 1 1 0 2.162Z" fill="currentColor"/><path d="M73.514 77.405h-28.52a1.081 1.081 0 0 1 0-2.162h28.52a2.162 2.162 0 0 0 2.162-2.162V32a2.162 2.162 0 0 0-2.162-2.162H6.487A2.162 2.162 0 0 0 4.325 32v41.081a2.162 2.162 0 0 0 2.162 2.162h9.448a1.081 1.081 0 0 1 0 2.162H6.487a4.324 4.324 0 0 1-4.325-4.324V32a4.324 4.324 0 0 1 4.325-4.324h67.027A4.325 4.325 0 0 1 77.838 32v41.081a4.324 4.324 0 0 1-4.324 4.324Z" fill="currentColor"/><path d="M37.427 77.405h-3.211a1.081 1.081 0 0 1 0-2.162h3.21a1.08 1.08 0 1 1 0 2.162ZM76.757 66.415c-.255 0-.502-.09-.697-.254L55.385 48.743 40.819 62.172a1.08 1.08 0 0 1-1.466-1.59l15.265-14.075a1.08 1.08 0 0 1 1.43-.031l21.406 18.031a1.08 1.08 0 0 1-.697 1.908Z" fill="currentColor"/><path d="M48.68 69.69c-.254 0-.5-.09-.694-.253L23.416 48.74 3.986 67.178a1.081 1.081 0 1 1-1.487-1.57l20.13-19.101a1.081 1.081 0 0 1 1.44-.043l25.307 21.32a1.08 1.08 0 0 1-.697 1.908v-.001ZM36.757 48.401a5.823 5.823 0 1 1 5.823-5.823 5.83 5.83 0 0 1-5.823 5.823Zm0-9.482a3.66 3.66 0 1 0 0 7.32 3.66 3.66 0 0 0 0-7.32ZM60.584 29.838H19.416a1.081 1.081 0 0 1-.82-1.787L35.15 8.847a1.081 1.081 0 1 1 1.638 1.411L21.775 27.676h36.51L43.372 9.68a1.08 1.08 0 1 1 1.666-1.378l16.378 19.77a1.081 1.081 0 0 1-.833 1.766Z" fill="currentColor"/><path d="M40 13.405A5.405 5.405 0 1 1 45.406 8 5.412 5.412 0 0 1 40 13.405Zm0-8.648a3.243 3.243 0 1 0 0 6.486 3.243 3.243 0 0 0 0-6.486Z" fill="currentColor"/></svg>
