<svg width="40" height="40" viewBox="0 0 40 40" fill="none" xmlns="http://www.w3.org/2000/svg">
<rect width="40" height="40" rx="2" fill="#E5E7EB"/>
<path fill-rule="evenodd" clip-rule="evenodd" d="M17.293 24.707C17.1056 24.5195 17.0002 24.2652 17.0002 24C17.0002 23.7349 17.1056 23.4806 17.293 23.293L20.586 20L17.293 16.707C17.1109 16.5184 17.0101 16.2658 17.0124 16.0036C17.0146 15.7414 17.1198 15.4906 17.3052 15.3052C17.4906 15.1198 17.7414 15.0146 18.0036 15.0124C18.2658 15.0101 18.5184 15.1109 18.707 15.293L22.707 19.293C22.8945 19.4806 22.9998 19.7349 22.9998 20C22.9998 20.2652 22.8945 20.5195 22.707 20.707L18.707 24.707C18.5195 24.8945 18.2652 24.9998 18 24.9998C17.7349 24.9998 17.4806 24.8945 17.293 24.707Z" fill="#4B5563"/>
</svg>
