<svg width="24" height="24" viewBox="0 0 24 24" fill="none" xmlns="http://www.w3.org/2000/svg">
<path d="M0 2C0 0.89543 0.895431 0 2 0H22C23.1046 0 24 0.895431 24 2V22C24 23.1046 23.1046 24 22 24H2C0.89543 24 0 23.1046 0 22V2Z" fill="#E5E7EB"/>
<path fill-rule="evenodd" clip-rule="evenodd" d="M9.83439 15.7657C9.68441 15.6156 9.60016 15.4122 9.60016 15.2001C9.60016 14.9879 9.68441 14.7845 9.83439 14.6345L12.4688 12.0001L9.83439 9.36566C9.68866 9.21478 9.60803 9.01269 9.60985 8.80294C9.61167 8.59318 9.69581 8.39253 9.84413 8.2442C9.99246 8.09588 10.1931 8.01174 10.4029 8.00992C10.6126 8.0081 10.8147 8.08873 10.9656 8.23446L14.1656 11.4345C14.3156 11.5845 14.3998 11.7879 14.3998 12.0001C14.3998 12.2122 14.3156 12.4156 14.1656 12.5657L10.9656 15.7657C10.8156 15.9156 10.6121 15.9999 10.4 15.9999C10.1879 15.9999 9.98441 15.9156 9.83439 15.7657Z" fill="#4B5563"/>
</svg>
