<svg width="80" height="80" fill="none" xmlns="http://www.w3.org/2000/svg"><path d="M50.206 4.324h-3.211a1.08 1.08 0 1 1 0-2.162h3.21a1.081 1.081 0 1 1 0 2.162Z" fill="currentColor"/><path d="M74.206 11.222H5.794a1.081 1.081 0 0 1-1.081-1.082V3.243a1.081 1.081 0 0 1 1.08-1.08h22.92a1.081 1.081 0 0 1 0 2.161H6.876V9.06h66.248V4.324h-15.35a1.081 1.081 0 0 1 0-2.162h16.431a1.081 1.081 0 0 1 1.082 1.081v6.897a1.081 1.081 0 0 1-1.082 1.082Z" fill="currentColor"/><path d="M39.427 4.324h-3.146a1.081 1.081 0 0 1 0-2.162h3.146a1.081 1.081 0 1 1 0 2.162ZM40 55.359a1.081 1.081 0 0 1-1.08-1.081V10.139a1.081 1.081 0 0 1 2.161 0v44.139a1.081 1.081 0 0 1-1.08 1.08Z" fill="currentColor"/><path d="M50.563 72.508H29.437a1.081 1.081 0 0 1-1.056-1.313l3.773-17.141a1.082 1.082 0 0 1 1.056-.849h13.58a1.081 1.081 0 0 1 1.056.849L51.62 71.2a1.08 1.08 0 0 1-1.056 1.313v-.005ZM30.78 70.346h18.44l-3.297-14.984H34.078l-3.299 14.984Z" fill="currentColor"/><path d="M40 77.838a6.417 6.417 0 0 1-6.411-6.411 1.081 1.081 0 0 1 2.162 0 4.25 4.25 0 0 0 8.497 0 1.08 1.08 0 1 1 2.163 0A6.417 6.417 0 0 1 40 77.837ZM65.314 37.961a1.081 1.081 0 0 1-1.08-1.081V10.14a1.081 1.081 0 0 1 2.162 0v26.74a1.08 1.08 0 0 1-1.082 1.081Z" fill="currentColor"/><path d="M75.243 54.082h-19.86a1.082 1.082 0 0 1-1.054-1.313l3.546-16.12a1.08 1.08 0 0 1 1.056-.849h12.766a1.081 1.081 0 0 1 1.057.849L76.3 52.766a1.083 1.083 0 0 1-1.056 1.314v.002ZM56.73 51.92h17.17l-3.07-13.956H59.802L56.73 51.92Z" fill="currentColor"/><path d="M65.314 59.092a6.098 6.098 0 0 1-6.09-6.09 1.08 1.08 0 1 1 2.162 0 3.929 3.929 0 1 0 7.857 0 1.081 1.081 0 0 1 2.162 0 6.098 6.098 0 0 1-6.09 6.09ZM14.685 37.961a1.08 1.08 0 0 1-1.08-1.081V10.14a1.08 1.08 0 0 1 2.161 0v26.74a1.081 1.081 0 0 1-1.08 1.081Z" fill="currentColor"/><path d="M24.616 54.082H4.756a1.081 1.081 0 0 1-1.055-1.313l3.542-16.12a1.08 1.08 0 0 1 1.056-.849h12.77a1.081 1.081 0 0 1 1.056.849l3.546 16.117a1.08 1.08 0 0 1-1.055 1.314v.002ZM6.1 51.92H23.27L20.2 37.964H9.17L6.102 51.92Z" fill="currentColor"/><path d="M14.685 59.092a6.098 6.098 0 0 1-6.09-6.09 1.081 1.081 0 1 1 2.162 0 3.929 3.929 0 0 0 7.857 0 1.08 1.08 0 1 1 2.162 0 6.098 6.098 0 0 1-6.09 6.09Z" fill="currentColor"/></svg>