<svg viewBox="0 0 36 32" fill="none" xmlns="http://www.w3.org/2000/svg">
<path d="M14.7321 3.90269C15.1321 2.67469 16.8695 2.67469 17.2681 3.90269L19.2935 10.1347C19.3806 10.402 19.5501 10.6349 19.7776 10.8002C20.0051 10.9654 20.279 11.0545 20.5601 11.0547H27.1135C28.4055 11.0547 28.9415 12.708 27.8975 13.468L22.5961 17.3187C22.3684 17.4842 22.1989 17.7176 22.112 17.9854C22.025 18.2532 22.0251 18.5416 22.1121 18.8094L24.1361 25.0414C24.5361 26.2707 23.1295 27.292 22.0855 26.532L16.7841 22.6814C16.5563 22.5157 16.2818 22.4265 16.0001 22.4265C15.7184 22.4265 15.444 22.5157 15.2161 22.6814L9.91479 26.532C8.87079 27.292 7.46413 26.2694 7.86413 25.0414L9.88813 18.8094C9.97516 18.5416 9.97521 18.2532 9.88827 17.9854C9.80133 17.7176 9.63185 17.4842 9.40413 17.3187L4.10279 13.468C3.05746 12.708 3.59613 11.0547 4.88679 11.0547H11.4388C11.7202 11.0548 11.9944 10.9658 12.2222 10.8006C12.4499 10.6353 12.6196 10.4022 12.7068 10.1347L14.7321 3.90269Z" fill="#D1D5DB"/>
</svg>
