<svg width="80" height="80" fill="none" xmlns="http://www.w3.org/2000/svg"><path d="M51.383 68.844c-.396 0-.784 0-1.168-.011a1.081 1.081 0 0 1-1.058-1.103 1.1 1.1 0 0 1 1.103-1.06c.995.022 2.027.013 3.156-.021a1.11 1.11 0 0 1 1.114 1.047 1.081 1.081 0 0 1-1.048 1.114c-.733.022-1.428.034-2.1.034Z" fill="currentColor"/><path d="M28.165 68.534a3.418 3.418 0 0 1-3.279-4.356l.99-3.53a48.382 48.382 0 0 1-.517-19.582c.277-1.51.207-3.062-.206-4.54l-.267-.933a3.42 3.42 0 0 1 4.52-4.126l.278.108c1.787.675 3.719.872 5.605.572a105.366 105.366 0 0 1 23.623-.928c2.652.19 5.423.502 8.234.928 1.876.3 3.8.106 5.577-.565l.31-.115a3.419 3.419 0 0 1 4.505 4.132l-.268.965a10.31 10.31 0 0 0-.227 4.662 47.739 47.739 0 0 1 0 17.321 10.31 10.31 0 0 0 .225 4.655l.272.978a3.416 3.416 0 0 1-4.525 4.12l-.276-.102a11.008 11.008 0 0 0-5.592-.561c-2.054.313-4.088.563-6.03.742a1.081 1.081 0 0 1-.198-2.153c1.9-.175 3.885-.42 5.904-.728a13.159 13.159 0 0 1 6.679.677l.28.103a1.252 1.252 0 0 0 1.677-1.521l-.274-.973a12.49 12.49 0 0 1-.266-5.633 45.583 45.583 0 0 0 0-16.54 12.492 12.492 0 0 1 .271-5.637l.268-.973a1.254 1.254 0 0 0-1.661-1.522l-.305.108a13.05 13.05 0 0 1-6.666.682 103.334 103.334 0 0 0-31.212 0 13.171 13.171 0 0 1-6.692-.687l-.278-.103a1.259 1.259 0 0 0-1.676 1.513l.269.939a12.29 12.29 0 0 1 .252 5.524 46.315 46.315 0 0 0 .574 19.038c.062.268.02.55-.118.787l-.973 3.479a1.257 1.257 0 0 0 1.662 1.52l.274-.108c.94-.362 1.92-.607 2.919-.732a1.08 1.08 0 1 1 .26 2.146c-.819.102-1.622.303-2.393.598l-.27.108c-.401.158-.828.24-1.259.243Z" fill="currentColor"/><path d="M42.672 68.487h-.09a102.4 102.4 0 0 1-3.18-.308 1.08 1.08 0 0 1-.952-1.195 1.064 1.064 0 0 1 1.197-.953c1.038.12 2.075.217 3.112.3a1.082 1.082 0 1 1-.087 2.163v-.007ZM25.776 53.673c-.11 0-.22-.016-.324-.05a104.977 104.977 0 0 1-13.788-5.422 11.091 11.091 0 0 0-5.513-1.081l-.313.025A3.413 3.413 0 0 1 2.71 41.89l1.961-3.093A48.603 48.603 0 0 1 9.85 19.904a9.92 9.92 0 0 0 1.107-4.388l.025-.996a3.421 3.421 0 0 1 5.528-2.628l.25.198a10.956 10.956 0 0 0 5.168 2.141 106.033 106.033 0 0 1 30.504 9.228 11.08 11.08 0 0 0 5.514 1.082l.296-.025a3.419 3.419 0 0 1 3.146 5.248l-.55.859a9.998 9.998 0 0 0-.99 2.027 1.08 1.08 0 1 1-2.038-.722c.308-.866.712-1.695 1.206-2.47l.551-.858a1.257 1.257 0 0 0-1.159-1.929l-.295.025a13.265 13.265 0 0 1-6.607-1.287 103.876 103.876 0 0 0-29.885-9.041 13.11 13.11 0 0 1-6.194-2.58l-.249-.197a1.258 1.258 0 0 0-2.032.973l-.025.99a12.083 12.083 0 0 1-1.348 5.337A46.547 46.547 0 0 0 6.81 39.288c-.018.274-.14.53-.342.717l-1.934 3.047a1.252 1.252 0 0 0 1.141 1.933l.314-.025c2.275-.146 4.55.297 6.603 1.289A102.873 102.873 0 0 0 26.1 51.56a1.081 1.081 0 0 1-.324 2.113Z" fill="currentColor"/></svg>