<svg width="40" height="40" fill="none" xmlns="http://www.w3.org/2000/svg"><path d="M32.5 40h-25A7.5 7.5 0 0 1 0 32.5v-25A7.5 7.5 0 0 1 7.5 0h25A7.5 7.5 0 0 1 40 7.5v25a7.5 7.5 0 0 1-7.5 7.5Z" fill="#E5E7EB"/><path d="M20.271 10c-5.481.001-8.396 3.514-8.396 7.344 0 1.776.992 3.991 2.582 4.694.454.203.394-.046.784-1.537a.354.354 0 0 0-.085-.347c-2.272-2.628-.444-8.029 4.793-8.029 7.577 0 6.162 10.485 1.318 10.485-1.248 0-2.178-.98-1.883-2.192.356-1.444 1.055-2.997 1.055-4.038 0-2.624-3.908-2.234-3.908 1.241 0 1.074.38 1.799.38 1.799l-1.491 6.029c-.395 1.606.054 4.207.092 4.431.024.124.163.163.24.061.124-.162 1.644-2.331 2.07-3.898.155-.572.792-2.888.792-2.888.418.756 1.627 1.39 2.915 1.39 3.83 0 6.599-3.366 6.599-7.544C28.11 12.996 24.683 10 20.27 10Z" fill="#9CA3AF"/></svg>