<svg xmlns="http://www.w3.org/2000/svg">
    <symbol id="visa" viewbox="0 0 56 36" fill="none">
        <path d="M0 4a4 4 0 0 1 4-4h48a4 4 0 0 1 4 4v28a4 4 0 0 1-4 4H4a4 4 0 0 1-4-4V4Z"  fill="currentColor"/>
        <path fill-rule="evenodd" clip-rule="evenodd" d="M19.28 23.907h-3.029l-2.271-9.31c-.108-.428-.337-.806-.674-.985a9.395 9.395 0 0 0-2.776-.985v-.359h4.88c.673 0 1.178.539 1.262 1.164l1.179 6.715 3.027-7.879h2.945L19.28 23.907Zm6.227 0h-2.861l2.356-11.639h2.86l-2.355 11.639Zm6.056-8.415c.085-.626.59-.985 1.179-.985a5.01 5.01 0 0 1 2.776.537l.505-2.506A6.804 6.804 0 0 0 33.415 12c-2.776 0-4.796 1.612-4.796 3.85 0 1.701 1.43 2.595 2.44 3.133 1.094.537 1.515.896 1.43 1.433 0 .805-.841 1.163-1.682 1.163-1.01 0-2.02-.268-2.945-.717l-.505 2.508c1.01.447 2.103.627 3.113.627 3.114.088 5.048-1.523 5.048-3.94 0-3.044-3.955-3.222-3.955-4.564Zm13.967 8.415-2.272-11.639h-2.44c-.504 0-1.01.359-1.178.896l-4.206 10.743h2.945l.588-1.701h3.618l.337 1.7h2.608Zm-4.29-8.505.84 4.387h-2.355l1.515-4.387Z" fill="#1733D5"/>
        <path d="M4 1h48v-2H4v2Zm51 3v28h2V4h-2Zm-3 31H4v2h48v-2ZM1 32V4h-2v28h2Zm3 3a3 3 0 0 1-3-3h-2a5 5 0 0 0 5 5v-2Zm51-3a3 3 0 0 1-3 3v2a5 5 0 0 0 5-5h-2ZM52 1a3 3 0 0 1 3 3h2a5 5 0 0 0-5-5v2ZM4-1a5 5 0 0 0-5 5h2a3 3 0 0 1 3-3v-2Z"  fill="currentColor"/>
    </symbol>
    <symbol id="paypal" viewbox="0 0 60 36" fill="none">
        <path d="M0 4a4 4 0 0 1 4-4h52a4 4 0 0 1 4 4v28a4 4 0 0 1-4 4H4a4 4 0 0 1-4-4V4Z" fill="currentColor"/><path d="M13.4 12.002H9.9a.487.487 0 0 0-.48.41l-1.416 8.98a.293.293 0 0 0 .289.339h1.671c.24 0 .443-.175.48-.412l.383-2.422a.487.487 0 0 1 .48-.411h1.109c2.305 0 3.636-1.117 3.984-3.329.157-.968.006-1.728-.447-2.26-.497-.585-1.38-.895-2.55-.895H13.4Zm.404 3.28c-.191 1.257-1.151 1.257-2.08 1.257h-.528l.37-2.348a.292.292 0 0 1 .29-.246h.242c.632 0 1.227 0 1.536.36.184.215.24.534.17.976v.001Zm10.059-.04h-1.677a.292.292 0 0 0-.288.247l-.074.469-.117-.17c-.363-.527-1.173-.703-1.98-.703-1.853 0-3.434 1.404-3.743 3.373-.16.982.068 1.921.625 2.576.51.603 1.242.853 2.111.853 1.493 0 2.32-.961 2.32-.961l-.074.466a.291.291 0 0 0 .287.338h1.51c.24 0 .443-.175.48-.412l.906-5.74a.29.29 0 0 0-.288-.336h.002Zm-2.337 3.264c-.161.958-.921 1.602-1.89 1.602-.488 0-.877-.156-1.126-.452-.248-.294-.342-.713-.263-1.179.15-.95.924-1.614 1.878-1.614.477 0 .863.158 1.118.456.255.301.357.722.284 1.187Zm11.263-3.264h-1.684c-.16 0-.311.08-.402.213l-2.324 3.424-.984-3.29a.488.488 0 0 0-.467-.347h-1.655c-.2 0-.34.196-.276.385l1.854 5.449-1.744 2.463a.292.292 0 0 0 .238.461h1.681c.16 0 .31-.078.4-.21l5.603-8.09a.291.291 0 0 0-.24-.458Z" fill="#283B82"/><path d="M38.365 12.002h-3.5a.487.487 0 0 0-.48.41l-1.416 8.98a.291.291 0 0 0 .287.337h1.796a.34.34 0 0 0 .335-.287l.402-2.546a.487.487 0 0 1 .48-.412h1.108c2.306 0 3.635-1.116 3.983-3.328.157-.968.007-1.729-.446-2.26-.496-.585-1.378-.895-2.55-.895l.001.001Zm.404 3.28c-.191 1.257-1.15 1.257-2.079 1.257h-.527l.371-2.348a.291.291 0 0 1 .287-.247h.243c.632 0 1.228 0 1.536.36.184.215.24.535.17.977l-.001.001Zm10.059-.04h-1.676a.29.29 0 0 0-.287.246l-.074.47-.117-.17c-.363-.527-1.172-.703-1.979-.703-1.852 0-3.433 1.404-3.741 3.373-.16.982.067 1.92.623 2.576.512.603 1.242.853 2.111.853 1.493 0 2.32-.961 2.32-.961l-.074.466a.292.292 0 0 0 .288.337h1.509c.24 0 .443-.174.48-.411l.907-5.74a.292.292 0 0 0-.29-.336Zm-2.337 3.264c-.16.958-.921 1.602-1.89 1.602-.487 0-.876-.157-1.126-.453-.248-.293-.34-.712-.263-1.178.152-.95.924-1.614 1.878-1.614.477 0 .863.158 1.118.456.257.301.358.722.284 1.187Zm4.312-6.258-1.436 9.145a.291.291 0 0 0 .287.336H51.1c.24 0 .444-.174.48-.411l1.417-8.98A.292.292 0 0 0 52.71 12h-1.618a.29.29 0 0 0-.287.247" fill="#469BDB"/><path d="M4 1h52v-2H4v2Zm55 3v28h2V4h-2Zm-3 31H4v2h52v-2ZM1 32V4h-2v28h2Zm3 3a3 3 0 0 1-3-3h-2a5 5 0 0 0 5 5v-2Zm55-3a3 3 0 0 1-3 3v2a5 5 0 0 0 5-5h-2ZM56 1a3 3 0 0 1 3 3h2a5 5 0 0 0-5-5v2ZM4-1a5 5 0 0 0-5 5h2a3 3 0 0 1 3-3v-2Z" fill="currentColor"/>
    </symbol>
    <symbol id="mastercard" viewbox="0 0 56 36" fill="none">
        <path d="M0 4a4 4 0 0 1 4-4h48a4 4 0 0 1 4 4v28a4 4 0 0 1-4 4H4a4 4 0 0 1-4-4V4Z" fill="currentColor"/><path fill-rule="evenodd" clip-rule="evenodd" d="M28 26.02a10.946 10.946 0 0 1-7.082 2.58C14.888 28.6 10 23.765 10 17.8 10 11.835 14.888 7 20.918 7c2.702 0 5.175.971 7.082 2.58A10.945 10.945 0 0 1 35.082 7C41.112 7 46 11.835 46 17.8c0 5.965-4.888 10.8-10.918 10.8-2.702 0-5.175-.971-7.082-2.58Z" fill="#ED0006"/><path fill-rule="evenodd" clip-rule="evenodd" d="M28 26.02c2.348-1.98 3.836-4.928 3.836-8.22 0-3.292-1.488-6.24-3.836-8.22A10.945 10.945 0 0 1 35.082 7C41.112 7 46 11.835 46 17.8c0 5.965-4.888 10.8-10.918 10.8-2.703 0-5.175-.971-7.082-2.58Z" fill="#F9A000"/><path fill-rule="evenodd" clip-rule="evenodd" d="M28 26.02c2.348-1.98 3.836-4.928 3.836-8.22 0-3.291-1.488-6.239-3.836-8.22-2.347 1.981-3.836 4.929-3.836 8.22 0 3.291 1.489 6.24 3.836 8.22Z" fill="#FF5E00"/><path d="M4 1h48v-2H4v2Zm51 3v28h2V4h-2Zm-3 31H4v2h48v-2ZM1 32V4h-2v28h2Zm3 3a3 3 0 0 1-3-3h-2a5 5 0 0 0 5 5v-2Zm51-3a3 3 0 0 1-3 3v2a5 5 0 0 0 5-5h-2ZM52 1a3 3 0 0 1 3 3h2a5 5 0 0 0-5-5v2ZM4-1a5 5 0 0 0-5 5h2a3 3 0 0 1 3-3v-2Z" fill="currentColor"/>
    </symbol>
    <symbol id="maestro" viewbox="0 0 56 36" fill="none">
        <path d="M0 4a4 4 0 0 1 4-4h48a4 4 0 0 1 4 4v28a4 4 0 0 1-4 4H4a4 4 0 0 1-4-4V4Z" fill="currentColor"/><path d="M31.836 17.8c0 5.965-4.888 10.8-10.918 10.8C14.888 28.6 10 23.765 10 17.8 10 11.835 14.888 7 20.918 7c6.03 0 10.918 4.835 10.918 10.8Z" fill="#ED0006"/><path d="M46 17.8c0 5.965-4.888 10.8-10.918 10.8-6.03 0-10.918-4.835-10.918-10.8 0-5.965 4.888-10.8 10.918-10.8C41.112 7 46 11.835 46 17.8Z" fill="#0099DF"/><path fill-rule="evenodd" clip-rule="evenodd" d="M28 26.02c2.348-1.981 3.836-4.929 3.836-8.22 0-3.292-1.488-6.24-3.836-8.22-2.347 1.98-3.836 4.928-3.836 8.22 0 3.291 1.489 6.239 3.836 8.22Z" fill="#6C6BBD"/><path d="M4 1h48v-2H4v2Zm51 3v28h2V4h-2Zm-3 31H4v2h48v-2ZM1 32V4h-2v28h2Zm3 3a3 3 0 0 1-3-3h-2a5 5 0 0 0 5 5v-2Zm51-3a3 3 0 0 1-3 3v2a5 5 0 0 0 5-5h-2ZM52 1a3 3 0 0 1 3 3h2a5 5 0 0 0-5-5v2ZM4-1a5 5 0 0 0-5 5h2a3 3 0 0 1 3-3v-2Z" fill="currentColor"/>
    </symbol>
    <symbol id="search" viewBox="0 0 28 28" fill="none">
        <path d="m24.5 24.5-7-7 7 7Zm-4.667-12.833a8.167 8.167 0 1 1-16.333 0 8.167 8.167 0 0 1 16.333 0Z" stroke="currentColor" stroke-linecap="round" stroke-linejoin="round"/>
    </symbol>
    <symbol id="account" viewBox="0 0 28 28" fill="none">
        <path d="M5.9745 20.7713C8.42265 19.3876 11.1878 18.6624 14 18.6667C16.9167 18.6667 19.6548 19.4308 22.0255 20.7713M17.5 11.6667C17.5 12.5949 17.1313 13.4852 16.4749 14.1415C15.8185 14.7979 14.9283 15.1667 14 15.1667C13.0717 15.1667 12.1815 14.7979 11.5251 14.1415C10.8687 13.4852 10.5 12.5949 10.5 11.6667C10.5 10.7384 10.8687 9.84817 11.5251 9.19179C12.1815 8.53541 13.0717 8.16667 14 8.16667C14.9283 8.16667 15.8185 8.53541 16.4749 9.19179C17.1313 9.84817 17.5 10.7384 17.5 11.6667ZM24.5 14C24.5 15.3789 24.2284 16.7443 23.7007 18.0182C23.1731 19.2921 22.3996 20.4496 21.4246 21.4246C20.4496 22.3996 19.2921 23.1731 18.0182 23.7007C16.7443 24.2284 15.3789 24.5 14 24.5C12.6211 24.5 11.2557 24.2284 9.98182 23.7007C8.70791 23.1731 7.55039 22.3996 6.57538 21.4246C5.60036 20.4496 4.82694 19.2921 4.29926 18.0182C3.77159 16.7443 3.5 15.3789 3.5 14C3.5 11.2152 4.60625 8.54451 6.57538 6.57538C8.54451 4.60625 11.2152 3.5 14 3.5C16.7848 3.5 19.4555 4.60625 21.4246 6.57538C23.3938 8.54451 24.5 11.2152 24.5 14Z" stroke="currentColor" stroke-linecap="round" stroke-linejoin="round"/>
    </symbol>
    <symbol id="cart" viewBox="0 0 28 28" fill="none">
        <path d="M18.667 12.8333V8.16667C18.667 6.92899 18.1753 5.742 17.3002 4.86683C16.425 3.99167 15.238 3.5 14.0003 3.5C12.7626 3.5 11.5757 3.99167 10.7005 4.86683C9.82532 5.742 9.33366 6.92899 9.33366 8.16667V12.8333M5.83366 10.5H22.167L23.3337 24.5H4.66699L5.83366 10.5Z" stroke="currentColor" stroke-linecap="round" stroke-linejoin="round"/>
    </symbol>
    <symbol id="furniture" viewBox="0 0 80 80" fill="none">
        <path d="M68.274 58.125H11.725a1.081 1.081 0 0 1-1.08-1.08V45.611c.15-2.115.24-7.866-1.122-10.01a.911.911 0 0 0-.888-.349 5.696 5.696 0 0 1-5.71-2.245 5.25 5.25 0 0 1 .07-5.549 6.832 6.832 0 0 1 5.453-3.42 5.317 5.317 0 0 1 3.909 1.334c2.416 2.162 7.979 8.684 8.39 23.243h38.506c.41-14.551 5.974-21.08 8.39-23.243a5.316 5.316 0 0 1 3.908-1.334 6.83 6.83 0 0 1 5.453 3.42 5.252 5.252 0 0 1 .07 5.546 5.694 5.694 0 0 1-5.709 2.245.912.912 0 0 0-.887.347c-1.364 2.146-1.274 7.897-1.126 9.932V57.04a1.083 1.083 0 0 1-1.078 1.084Zm-55.468-2.162h54.387V45.612c-.057-.742-.533-8.038 1.46-11.172a3.054 3.054 0 0 1 2.98-1.332 3.58 3.58 0 0 0 3.627-1.276 3.091 3.091 0 0 0-.102-3.243 4.672 4.672 0 0 0-3.777-2.387 3.126 3.126 0 0 0-2.298.791c-2.26 2.02-7.536 8.275-7.69 22.718a1.08 1.08 0 0 1-1.08 1.07H19.686a1.081 1.081 0 0 1-1.08-1.07c-.154-14.444-5.43-20.698-7.69-22.717a3.115 3.115 0 0 0-2.299-.792 4.672 4.672 0 0 0-3.776 2.387 3.09 3.09 0 0 0-.103 3.243 3.583 3.583 0 0 0 3.63 1.276 3.054 3.054 0 0 1 2.982 1.333c1.991 3.135 1.514 10.43 1.455 11.25v10.272Z" fill="currentColor"/><path d="M61.903 38.687a1.047 1.047 0 0 1-1.081-1.044V11.416a5.838 5.838 0 0 0-5.304-5.777 1.081 1.081 0 0 1-.984-1.169 1.067 1.067 0 0 1 1.17-.985 8.012 8.012 0 0 1 7.28 7.931v26.152a1.115 1.115 0 0 1-1.081 1.119ZM37.265 5.61h-3.146a1.081 1.081 0 1 1 0-2.161h3.146a1.081 1.081 0 1 1 0 2.162ZM18.714 41.124a1.081 1.081 0 0 1-1.081-1.08V11.415A7.976 7.976 0 0 1 25.6 3.45h.951a1.081 1.081 0 1 1 0 2.162h-.95a5.812 5.812 0 0 0-5.806 5.805v28.627a1.081 1.081 0 0 1-1.081 1.081ZM48.043 5.61h-3.21a1.081 1.081 0 1 1 0-2.161h3.21a1.081 1.081 0 1 1 0 2.162Z" fill="currentColor"/><path d="M60.714 44.649a1.081 1.081 0 0 1-1.076-.965 5.92 5.92 0 0 0-5.868-4.973H26.23a5.92 5.92 0 0 0-5.873 5.005 1.08 1.08 0 0 1-2.151-.142v-.006c0-.057.004-.113.014-.17a8.071 8.071 0 0 1 8.01-6.845h27.54a8.072 8.072 0 0 1 8.01 6.846 1.08 1.08 0 0 1-1.067 1.25ZM68.27 76.554h-5.83a1.081 1.081 0 0 1-1.073-.953l-2.205-18.43a1.081 1.081 0 1 1 2.147-.255L63.4 74.39h3.784V57.044a1.081 1.081 0 0 1 2.162 0v18.428a1.081 1.081 0 0 1-1.076 1.082ZM17.56 76.554h-5.83a1.08 1.08 0 0 1-1.081-1.082V57.044a1.081 1.081 0 0 1 2.162 0v17.347H16.6l2.09-17.475a1.081 1.081 0 0 1 2.148.256l-2.205 18.43a1.08 1.08 0 0 1-1.073.952Z" fill="currentColor"/>
    </symbol>
    <symbol id="kitchenware" viewBox="0 0 80 80" fill="none">
        <path d="M76.757 74.536H3.243a1.081 1.081 0 0 1-1.08-1.08V46.773a1.081 1.081 0 0 1 1.08-1.081h73.514a1.08 1.08 0 0 1 1.081 1.081v26.681a1.081 1.081 0 0 1-1.081 1.081ZM4.325 72.374h71.35V47.855H4.326v24.519Z" fill="currentColor"/><path d="M40 74.54a1.081 1.081 0 0 1-1.08-1.08V46.77a1.081 1.081 0 0 1 2.161 0v26.69a1.081 1.081 0 0 1-1.08 1.08ZM44.907 66.314a1.081 1.081 0 0 1-1.081-1.081v-9.854a1.081 1.081 0 0 1 2.162 0v9.854a1.08 1.08 0 0 1-1.081 1.08ZM35.088 66.314a1.08 1.08 0 0 1-1.08-1.081v-9.854a1.081 1.081 0 0 1 2.161 0v9.854a1.08 1.08 0 0 1-1.08 1.08ZM68.305 47.85H50.839a1.081 1.081 0 0 1-1.081-1.08v-3.916a1.081 1.081 0 0 1 1.08-1.081h17.467a1.081 1.081 0 0 1 1.08 1.081v3.916a1.081 1.081 0 0 1-1.08 1.08ZM51.92 45.69h15.303v-1.754H51.92v1.754Z" fill="currentColor"/><path d="M64.54 43.94h-9.926a1.08 1.08 0 0 1-1.081-1.08v-3.52a1.08 1.08 0 0 1 1.08-1.08h3.008a1.081 1.081 0 0 1 0 2.162h-1.924v1.356h7.762v-1.356h-1.924a1.081 1.081 0 0 1 0-2.162h3.005a1.081 1.081 0 0 1 1.081 1.08v3.52a1.08 1.08 0 0 1-1.08 1.08ZM29.157 47.85H11.69a1.08 1.08 0 0 1-1.081-1.08v-3.916a1.081 1.081 0 0 1 1.08-1.081h17.467a1.081 1.081 0 0 1 1.08 1.081v3.916a1.081 1.081 0 0 1-1.08 1.08ZM12.772 45.69h15.304v-1.754H12.772v1.754Z" fill="currentColor"/><path d="M25.383 43.94H15.46a1.081 1.081 0 0 1-1.082-1.08v-3.52a1.08 1.08 0 0 1 1.082-1.08h3.006a1.081 1.081 0 0 1 0 2.162h-1.925v1.356h7.76v-1.356h-1.923a1.081 1.081 0 0 1 0-2.162h3.007a1.081 1.081 0 0 1 1.081 1.08v3.52a1.083 1.083 0 0 1-1.083 1.08ZM61.027 7.632h-3.135a1.081 1.081 0 0 1 0-2.162h3.135a1.081 1.081 0 0 1 0 2.162Z" fill="currentColor"/><path d="M76.757 30.032H3.243a1.08 1.08 0 0 1-1.08-1.08v-22.4a1.081 1.081 0 0 1 1.08-1.082h47.081a1.081 1.081 0 0 1 0 2.162h-46V27.87h71.352V7.632h-7.081a1.081 1.081 0 1 1 0-2.162h8.162a1.08 1.08 0 0 1 1.081 1.081v22.4a1.081 1.081 0 0 1-1.081 1.081Z" fill="currentColor"/><path d="M40 30.034a1.081 1.081 0 0 1-1.08-1.082V6.54a1.081 1.081 0 0 1 2.161 0v22.412a1.08 1.08 0 0 1-1.08 1.081ZM63.467 24.688h-7.791a1.081 1.081 0 0 1 0-2.162h7.79a1.08 1.08 0 1 1 0 2.162h.001ZM24.324 24.688H16.53a1.081 1.081 0 0 1 0-2.162h7.795a1.08 1.08 0 1 1 0 2.162Z" fill="currentColor"/>
    </symbol>
    <symbol id="lighting" viewBox="0 0 80 80" fill="none">
        <path d="M50.206 4.324h-3.211a1.08 1.08 0 1 1 0-2.162h3.21a1.081 1.081 0 1 1 0 2.162Z" fill="currentColor"/><path d="M74.206 11.222H5.794a1.081 1.081 0 0 1-1.081-1.082V3.243a1.081 1.081 0 0 1 1.08-1.08h22.92a1.081 1.081 0 0 1 0 2.161H6.876V9.06h66.248V4.324h-15.35a1.081 1.081 0 0 1 0-2.162h16.431a1.081 1.081 0 0 1 1.082 1.081v6.897a1.081 1.081 0 0 1-1.082 1.082Z" fill="currentColor"/><path d="M39.427 4.324h-3.146a1.081 1.081 0 0 1 0-2.162h3.146a1.081 1.081 0 1 1 0 2.162ZM40 55.359a1.081 1.081 0 0 1-1.08-1.081V10.139a1.081 1.081 0 0 1 2.161 0v44.139a1.081 1.081 0 0 1-1.08 1.08Z" fill="currentColor"/><path d="M50.563 72.508H29.437a1.081 1.081 0 0 1-1.056-1.313l3.773-17.141a1.082 1.082 0 0 1 1.056-.849h13.58a1.081 1.081 0 0 1 1.056.849L51.62 71.2a1.08 1.08 0 0 1-1.056 1.313v-.005ZM30.78 70.346h18.44l-3.297-14.984H34.078l-3.299 14.984Z" fill="currentColor"/><path d="M40 77.838a6.417 6.417 0 0 1-6.411-6.411 1.081 1.081 0 0 1 2.162 0 4.25 4.25 0 0 0 8.497 0 1.08 1.08 0 1 1 2.163 0A6.417 6.417 0 0 1 40 77.837ZM65.314 37.961a1.081 1.081 0 0 1-1.08-1.081V10.14a1.081 1.081 0 0 1 2.162 0v26.74a1.08 1.08 0 0 1-1.082 1.081Z" fill="currentColor"/><path d="M75.243 54.082h-19.86a1.082 1.082 0 0 1-1.054-1.313l3.546-16.12a1.08 1.08 0 0 1 1.056-.849h12.766a1.081 1.081 0 0 1 1.057.849L76.3 52.766a1.083 1.083 0 0 1-1.056 1.314v.002ZM56.73 51.92h17.17l-3.07-13.956H59.802L56.73 51.92Z" fill="currentColor"/><path d="M65.314 59.092a6.098 6.098 0 0 1-6.09-6.09 1.08 1.08 0 1 1 2.162 0 3.929 3.929 0 1 0 7.857 0 1.081 1.081 0 0 1 2.162 0 6.098 6.098 0 0 1-6.09 6.09ZM14.685 37.961a1.08 1.08 0 0 1-1.08-1.081V10.14a1.08 1.08 0 0 1 2.161 0v26.74a1.081 1.081 0 0 1-1.08 1.081Z" fill="currentColor"/><path d="M24.616 54.082H4.756a1.081 1.081 0 0 1-1.055-1.313l3.542-16.12a1.08 1.08 0 0 1 1.056-.849h12.77a1.081 1.081 0 0 1 1.056.849l3.546 16.117a1.08 1.08 0 0 1-1.055 1.314v.002ZM6.1 51.92H23.27L20.2 37.964H9.17L6.102 51.92Z" fill="currentColor"/><path d="M14.685 59.092a6.098 6.098 0 0 1-6.09-6.09 1.081 1.081 0 1 1 2.162 0 3.929 3.929 0 0 0 7.857 0 1.08 1.08 0 1 1 2.162 0 6.098 6.098 0 0 1-6.09 6.09Z" fill="currentColor"/>
    </symbol>
    <symbol id="home-decor" viewBox="0 0 80 80" fill="none">
        <path d="M26.649 77.405h-3.146a1.081 1.081 0 1 1 0-2.162h3.146a1.08 1.08 0 1 1 0 2.162Z" fill="currentColor"/><path d="M73.514 77.405h-28.52a1.081 1.081 0 0 1 0-2.162h28.52a2.162 2.162 0 0 0 2.162-2.162V32a2.162 2.162 0 0 0-2.162-2.162H6.487A2.162 2.162 0 0 0 4.325 32v41.081a2.162 2.162 0 0 0 2.162 2.162h9.448a1.081 1.081 0 0 1 0 2.162H6.487a4.324 4.324 0 0 1-4.325-4.324V32a4.324 4.324 0 0 1 4.325-4.324h67.027A4.325 4.325 0 0 1 77.838 32v41.081a4.324 4.324 0 0 1-4.324 4.324Z" fill="currentColor"/><path d="M37.427 77.405h-3.211a1.081 1.081 0 0 1 0-2.162h3.21a1.08 1.08 0 1 1 0 2.162ZM76.757 66.415c-.255 0-.502-.09-.697-.254L55.385 48.743 40.819 62.172a1.08 1.08 0 0 1-1.466-1.59l15.265-14.075a1.08 1.08 0 0 1 1.43-.031l21.406 18.031a1.08 1.08 0 0 1-.697 1.908Z" fill="currentColor"/><path d="M48.68 69.69c-.254 0-.5-.09-.694-.253L23.416 48.74 3.986 67.178a1.081 1.081 0 1 1-1.487-1.57l20.13-19.101a1.081 1.081 0 0 1 1.44-.043l25.307 21.32a1.08 1.08 0 0 1-.697 1.908v-.001ZM36.757 48.401a5.823 5.823 0 1 1 5.823-5.823 5.83 5.83 0 0 1-5.823 5.823Zm0-9.482a3.66 3.66 0 1 0 0 7.32 3.66 3.66 0 0 0 0-7.32ZM60.584 29.838H19.416a1.081 1.081 0 0 1-.82-1.787L35.15 8.847a1.081 1.081 0 1 1 1.638 1.411L21.775 27.676h36.51L43.372 9.68a1.08 1.08 0 1 1 1.666-1.378l16.378 19.77a1.081 1.081 0 0 1-.833 1.766Z" fill="currentColor"/><path d="M40 13.405A5.405 5.405 0 1 1 45.406 8 5.412 5.412 0 0 1 40 13.405Zm0-8.648a3.243 3.243 0 1 0 0 6.486 3.243 3.243 0 0 0 0-6.486Z" fill="currentColor"/>
    </symbol>
    <symbol id="home-textiles" viewBox="0 0 80 80" fill="none">
        <path d="M51.383 68.844c-.396 0-.784 0-1.168-.011a1.081 1.081 0 0 1-1.058-1.103 1.1 1.1 0 0 1 1.103-1.06c.995.022 2.027.013 3.156-.021a1.11 1.11 0 0 1 1.114 1.047 1.081 1.081 0 0 1-1.048 1.114c-.733.022-1.428.034-2.1.034Z" fill="currentColor"/><path d="M28.165 68.534a3.418 3.418 0 0 1-3.279-4.356l.99-3.53a48.382 48.382 0 0 1-.517-19.582c.277-1.51.207-3.062-.206-4.54l-.267-.933a3.42 3.42 0 0 1 4.52-4.126l.278.108c1.787.675 3.719.872 5.605.572a105.366 105.366 0 0 1 23.623-.928c2.652.19 5.423.502 8.234.928 1.876.3 3.8.106 5.577-.565l.31-.115a3.419 3.419 0 0 1 4.505 4.132l-.268.965a10.31 10.31 0 0 0-.227 4.662 47.739 47.739 0 0 1 0 17.321 10.31 10.31 0 0 0 .225 4.655l.272.978a3.416 3.416 0 0 1-4.525 4.12l-.276-.102a11.008 11.008 0 0 0-5.592-.561c-2.054.313-4.088.563-6.03.742a1.081 1.081 0 0 1-.198-2.153c1.9-.175 3.885-.42 5.904-.728a13.159 13.159 0 0 1 6.679.677l.28.103a1.252 1.252 0 0 0 1.677-1.521l-.274-.973a12.49 12.49 0 0 1-.266-5.633 45.583 45.583 0 0 0 0-16.54 12.492 12.492 0 0 1 .271-5.637l.268-.973a1.254 1.254 0 0 0-1.661-1.522l-.305.108a13.05 13.05 0 0 1-6.666.682 103.334 103.334 0 0 0-31.212 0 13.171 13.171 0 0 1-6.692-.687l-.278-.103a1.259 1.259 0 0 0-1.676 1.513l.269.939a12.29 12.29 0 0 1 .252 5.524 46.315 46.315 0 0 0 .574 19.038c.062.268.02.55-.118.787l-.973 3.479a1.257 1.257 0 0 0 1.662 1.52l.274-.108c.94-.362 1.92-.607 2.919-.732a1.08 1.08 0 1 1 .26 2.146c-.819.102-1.622.303-2.393.598l-.27.108c-.401.158-.828.24-1.259.243Z" fill="currentColor"/><path d="M42.672 68.487h-.09a102.4 102.4 0 0 1-3.18-.308 1.08 1.08 0 0 1-.952-1.195 1.064 1.064 0 0 1 1.197-.953c1.038.12 2.075.217 3.112.3a1.082 1.082 0 1 1-.087 2.163v-.007ZM25.776 53.673c-.11 0-.22-.016-.324-.05a104.977 104.977 0 0 1-13.788-5.422 11.091 11.091 0 0 0-5.513-1.081l-.313.025A3.413 3.413 0 0 1 2.71 41.89l1.961-3.093A48.603 48.603 0 0 1 9.85 19.904a9.92 9.92 0 0 0 1.107-4.388l.025-.996a3.421 3.421 0 0 1 5.528-2.628l.25.198a10.956 10.956 0 0 0 5.168 2.141 106.033 106.033 0 0 1 30.504 9.228 11.08 11.08 0 0 0 5.514 1.082l.296-.025a3.419 3.419 0 0 1 3.146 5.248l-.55.859a9.998 9.998 0 0 0-.99 2.027 1.08 1.08 0 1 1-2.038-.722c.308-.866.712-1.695 1.206-2.47l.551-.858a1.257 1.257 0 0 0-1.159-1.929l-.295.025a13.265 13.265 0 0 1-6.607-1.287 103.876 103.876 0 0 0-29.885-9.041 13.11 13.11 0 0 1-6.194-2.58l-.249-.197a1.258 1.258 0 0 0-2.032.973l-.025.99a12.083 12.083 0 0 1-1.348 5.337A46.547 46.547 0 0 0 6.81 39.288c-.018.274-.14.53-.342.717l-1.934 3.047a1.252 1.252 0 0 0 1.141 1.933l.314-.025c2.275-.146 4.55.297 6.603 1.289A102.873 102.873 0 0 0 26.1 51.56a1.081 1.081 0 0 1-.324 2.113Z" fill="currentColor"/>
    </symbol>
    <symbol id="eco-friendly" viewBox="0 0 80 80" fill="none">
        <path d="M54.93 77.838H25.049a1.081 1.081 0 0 1-1.062-.871l-7.286-36.888a1.081 1.081 0 0 1 1.061-1.29h44.455a1.08 1.08 0 0 1 1.06 1.29l-2.583 13.104a1.082 1.082 0 0 1-2.122-.42l2.33-11.812H19.077l6.86 34.725h28.108l.92-4.633a1.082 1.082 0 0 1 1.972-.405 1.084 1.084 0 0 1 .149.827l-1.093 5.503a1.082 1.082 0 0 1-1.063.87Z" fill="currentColor"/><path d="M57.514 64.768a1.08 1.08 0 0 1-1.062-1.289l.615-3.146a1.082 1.082 0 0 1 2.122.415l-.615 3.146a1.081 1.081 0 0 1-1.06.874ZM42.906 40.955a1.082 1.082 0 0 1-.874-1.712 27.281 27.281 0 0 0-2.044-34.439 27.279 27.279 0 0 0-2.042 34.433 1.082 1.082 0 0 1-1.75 1.273A29.444 29.444 0 0 1 39.225 2.48a1.114 1.114 0 0 1 1.53 0 29.442 29.442 0 0 1 3.028 38.031 1.08 1.08 0 0 1-.876.445Z" fill="currentColor"/><path d="M53.555 40.955a1.081 1.081 0 0 1-.55-2.013A27.298 27.298 0 0 0 66.47 15.794a27.116 27.116 0 0 0-17.434 7.923 1.08 1.08 0 0 1-1.779-.34 1.08 1.08 0 0 1 .248-1.187 29.274 29.274 0 0 1 20.01-8.61 1.078 1.078 0 0 1 1.111 1.051 29.463 29.463 0 0 1-14.524 26.174c-.166.098-.355.15-.547.15ZM26.445 40.955c-.192 0-.38-.052-.547-.15a29.462 29.462 0 0 1-14.524-26.174 1.09 1.09 0 0 1 .695-.983c.133-.05.274-.074.416-.069a29.28 29.28 0 0 1 19.986 8.583 1.08 1.08 0 0 1-1.528 1.529 27.116 27.116 0 0 0-17.413-7.902 27.298 27.298 0 0 0 13.465 23.153 1.081 1.081 0 0 1-.55 2.013ZM60.486 49.73H19.492a1.081 1.081 0 0 1 0-2.162h40.994a1.081 1.081 0 0 1 0 2.162Z" fill="currentColor"/>
    </symbol>
    <symbol id="ecofriendlybig" viewbox="0 0 80 80" fill="none">
        <path d="M54.93 77.838H25.049a1.081 1.081 0 0 1-1.062-.871l-7.286-36.888a1.081 1.081 0 0 1 1.061-1.29h44.455a1.08 1.08 0 0 1 1.06 1.29l-2.583 13.104a1.082 1.082 0 0 1-2.122-.42l2.33-11.812H19.077l6.86 34.725h28.108l.92-4.633a1.082 1.082 0 0 1 1.972-.405 1.084 1.084 0 0 1 .149.827l-1.093 5.503a1.082 1.082 0 0 1-1.063.87Z" fill="currentColor"/>
        <path d="M57.514 64.768a1.08 1.08 0 0 1-1.062-1.289l.615-3.146a1.082 1.082 0 0 1 2.122.415l-.615 3.146a1.081 1.081 0 0 1-1.06.874ZM42.906 40.955a1.082 1.082 0 0 1-.874-1.712 27.281 27.281 0 0 0-2.044-34.439 27.279 27.279 0 0 0-2.042 34.433 1.082 1.082 0 0 1-1.75 1.273A29.444 29.444 0 0 1 39.225 2.48a1.114 1.114 0 0 1 1.53 0 29.442 29.442 0 0 1 3.028 38.031 1.08 1.08 0 0 1-.876.445Z" fill="currentColor"/>
        <path d="M53.555 40.955a1.081 1.081 0 0 1-.55-2.013A27.298 27.298 0 0 0 66.47 15.794a27.116 27.116 0 0 0-17.434 7.923 1.08 1.08 0 0 1-1.779-.34 1.08 1.08 0 0 1 .248-1.187 29.274 29.274 0 0 1 20.01-8.61 1.078 1.078 0 0 1 1.111 1.051 29.463 29.463 0 0 1-14.524 26.174c-.166.098-.355.15-.547.15ZM26.445 40.955c-.192 0-.38-.052-.547-.15a29.462 29.462 0 0 1-14.524-26.174 1.09 1.09 0 0 1 .695-.983c.133-.05.274-.074.416-.069a29.28 29.28 0 0 1 19.986 8.583 1.08 1.08 0 0 1-1.528 1.529 27.116 27.116 0 0 0-17.413-7.902 27.298 27.298 0 0 0 13.465 23.153 1.081 1.081 0 0 1-.55 2.013ZM60.486 49.73H19.492a1.081 1.081 0 0 1 0-2.162h40.994a1.081 1.081 0 0 1 0 2.162Z" fill="currentColor"/>
    </symbol>
    <symbol id="ecofriendlysmall" viewbox="0 0 24 24" fill="none">
        <path d="M16.479 23.351H7.515a.324.324 0 0 1-.319-.261L5.01 12.024a.324.324 0 0 1 .319-.387h13.336a.327.327 0 0 1 .314.245.325.325 0 0 1 .004.142l-.775 3.93a.325.325 0 0 1-.636-.125l.698-3.544H5.723l2.058 10.418h8.432l.277-1.39a.324.324 0 1 1 .636.127l-.328 1.65a.325.325 0 0 1-.32.261Z" fill="currentColor"/>
        <path d="M17.254 19.43a.326.326 0 0 1-.319-.387l.185-.943a.324.324 0 1 1 .637.124l-.185.944a.325.325 0 0 1-.318.262ZM12.872 12.286a.325.325 0 0 1-.262-.513 8.185 8.185 0 0 0-.614-10.332 8.183 8.183 0 0 0-.612 10.33.325.325 0 0 1-.525.382 8.833 8.833 0 0 1 .908-11.41.334.334 0 0 1 .46 0 8.833 8.833 0 0 1 .907 11.41.324.324 0 0 1-.262.133Z" fill="currentColor"/>
        <path d="M16.066 12.286a.324.324 0 0 1-.164-.604 8.19 8.19 0 0 0 4.04-6.944 8.135 8.135 0 0 0-5.231 2.377.324.324 0 1 1-.46-.458 8.782 8.782 0 0 1 6.003-2.583.324.324 0 0 1 .334.315 8.838 8.838 0 0 1-4.358 7.853.321.321 0 0 1-.164.044ZM7.934 12.286a.321.321 0 0 1-.164-.044 8.839 8.839 0 0 1-4.358-7.853.327.327 0 0 1 .334-.315A8.784 8.784 0 0 1 9.74 6.649a.324.324 0 0 1-.458.458 8.135 8.135 0 0 0-5.224-2.37 8.19 8.19 0 0 0 4.04 6.945.325.325 0 0 1-.165.604ZM18.146 14.919H5.848a.324.324 0 0 1 0-.649h12.298a.324.324 0 1 1 0 .649Z" fill="currentColor"/>
    </symbol>
</svg>

