<svg width="80" height="80" fill="none" xmlns="http://www.w3.org/2000/svg"><path d="M68.274 58.125H11.725a1.081 1.081 0 0 1-1.08-1.08V45.611c.15-2.115.24-7.866-1.122-10.01a.911.911 0 0 0-.888-.349 5.696 5.696 0 0 1-5.71-2.245 5.25 5.25 0 0 1 .07-5.549 6.832 6.832 0 0 1 5.453-3.42 5.317 5.317 0 0 1 3.909 1.334c2.416 2.162 7.979 8.684 8.39 23.243h38.506c.41-14.551 5.974-21.08 8.39-23.243a5.316 5.316 0 0 1 3.908-1.334 6.83 6.83 0 0 1 5.453 3.42 5.252 5.252 0 0 1 .07 5.546 5.694 5.694 0 0 1-5.709 2.245.912.912 0 0 0-.887.347c-1.364 2.146-1.274 7.897-1.126 9.932V57.04a1.083 1.083 0 0 1-1.078 1.084Zm-55.468-2.162h54.387V45.612c-.057-.742-.533-8.038 1.46-11.172a3.054 3.054 0 0 1 2.98-1.332 3.58 3.58 0 0 0 3.627-1.276 3.091 3.091 0 0 0-.102-3.243 4.672 4.672 0 0 0-3.777-2.387 3.126 3.126 0 0 0-2.298.791c-2.26 2.02-7.536 8.275-7.69 22.718a1.08 1.08 0 0 1-1.08 1.07H19.686a1.08 1.08 0 0 1-1.08-1.07c-.154-14.444-5.43-20.698-7.69-22.717a3.115 3.115 0 0 0-2.299-.792 4.672 4.672 0 0 0-3.776 2.387 3.09 3.09 0 0 0-.103 3.243 3.583 3.583 0 0 0 3.63 1.276 3.054 3.054 0 0 1 2.982 1.333c1.991 3.135 1.514 10.43 1.455 11.25v10.272Z" fill="currentColor"/><path d="M61.903 38.687a1.047 1.047 0 0 1-1.081-1.044V11.416a5.838 5.838 0 0 0-5.304-5.777 1.081 1.081 0 0 1-.984-1.169 1.067 1.067 0 0 1 1.17-.985 8.012 8.012 0 0 1 7.28 7.931v26.152a1.115 1.115 0 0 1-1.081 1.119ZM37.265 5.61h-3.146a1.081 1.081 0 1 1 0-2.161h3.146a1.081 1.081 0 1 1 0 2.162ZM18.714 41.124a1.081 1.081 0 0 1-1.081-1.08V11.415A7.976 7.976 0 0 1 25.6 3.45h.951a1.081 1.081 0 1 1 0 2.162h-.95a5.812 5.812 0 0 0-5.806 5.805v28.627a1.081 1.081 0 0 1-1.081 1.081ZM48.043 5.61h-3.21a1.081 1.081 0 1 1 0-2.161h3.21a1.081 1.081 0 1 1 0 2.162Z" fill="currentColor"/><path d="M60.714 44.649a1.081 1.081 0 0 1-1.076-.965 5.92 5.92 0 0 0-5.868-4.973H26.23a5.92 5.92 0 0 0-5.873 5.005 1.08 1.08 0 0 1-2.151-.142v-.006c0-.057.004-.113.014-.17a8.071 8.071 0 0 1 8.01-6.845h27.54a8.072 8.072 0 0 1 8.01 6.846 1.08 1.08 0 0 1-1.067 1.25ZM68.27 76.554h-5.83a1.081 1.081 0 0 1-1.073-.953l-2.205-18.43a1.081 1.081 0 1 1 2.147-.255L63.4 74.39h3.784V57.044a1.081 1.081 0 0 1 2.162 0v18.428a1.081 1.081 0 0 1-1.076 1.082ZM17.56 76.554h-5.83a1.08 1.08 0 0 1-1.081-1.082V57.044a1.081 1.081 0 0 1 2.162 0v17.347H16.6l2.09-17.475a1.081 1.081 0 0 1 2.148.256l-2.205 18.43a1.08 1.08 0 0 1-1.073.952Z" fill="currentColor"/></svg>