<svg width="40" height="40" fill="none" xmlns="http://www.w3.org/2000/svg"><path d="M32.5 40h-25A7.5 7.5 0 0 1 0 32.5v-25A7.5 7.5 0 0 1 7.5 0h25A7.5 7.5 0 0 1 40 7.5v25a7.5 7.5 0 0 1-7.5 7.5Z" fill="#E5E7EB"/><path d="M20.004 14.865a5.13 5.13 0 1 0 0 10.263 5.13 5.13 0 1 0 0-10.263Zm0 8.463a3.331 3.331 0 1 1 0-6.662 3.331 3.331 0 0 1 0 6.662Z" fill="#9CA3AF"/><path d="M24.124 10.063c-1.84-.087-6.398-.083-8.24 0-1.619.076-3.046.467-4.197 1.617-1.923 1.924-1.677 4.515-1.677 8.316 0 3.89-.216 6.423 1.678 8.317 1.93 1.93 4.56 1.677 8.316 1.677 4.604 0 9.641.441 9.933-5.874.087-1.84.083-6.397 0-8.238-.165-3.512-2.05-5.64-5.813-5.815Zm2.911 16.977c-1.261 1.261-3.01 1.149-7.058 1.149-4.166 0-5.837.061-7.057-1.161-1.405-1.398-1.15-3.643-1.15-7.044 0-8.313.476-8.206 8.195-8.206l.038.025c8.277 0 8.192.536 8.192 8.193.001 4.118.08 5.8-1.16 7.044Z" fill="#9CA3AF"/><path d="M25.339 15.861a1.199 1.199 0 1 0 0-2.397 1.199 1.199 0 0 0 0 2.397Z" fill="#9CA3AF"/></svg>