<svg width="56" height="36" fill="none" xmlns="http://www.w3.org/2000/svg"><g clip-path="url(#a)"><path d="M0 4a4 4 0 0 1 4-4h48a4 4 0 0 1 4 4v28a4 4 0 0 1-4 4H4a4 4 0 0 1-4-4V4Z" fill="#E5E7EB"/><path d="M4 1h48v-2H4v2Zm51 3v28h2V4h-2Zm-3 31H4v2h48v-2ZM1 32V4h-2v28h2Zm3 3a3 3 0 0 1-3-3h-2a5 5 0 0 0 5 5v-2Zm51-3a3 3 0 0 1-3 3v2a5 5 0 0 0 5-5h-2ZM52 1a3 3 0 0 1 3 3h2a5 5 0 0 0-5-5v2ZM4-1a5 5 0 0 0-5 5h2a3 3 0 0 1 3-3v-2Z" fill="#E5E7EB"/><path d="M42 24.03c0 2.37-1.951 4.3-4.347 4.3H14V11.3C14 8.93 15.951 7 18.347 7H42v17.03Z" fill="#fff"/><path d="M34.298 19.663h1.797c.052 0 .172-.017.223-.017a.795.795 0 0 0 .633-.796.823.823 0 0 0-.633-.796c-.051-.017-.154-.017-.223-.017h-1.797v1.626Z" fill="url(#b)"/><path d="M35.89 8.439c-1.712 0-3.115 1.371-3.115 3.08v3.2h4.399c.102 0 .222 0 .308.017.992.051 1.728.559 1.728 1.44 0 .693-.496 1.286-1.42 1.404v.034c1.01.068 1.78.627 1.78 1.49 0 .931-.856 1.54-1.986 1.54h-4.826v6.264h4.57c1.711 0 3.114-1.371 3.114-3.081V8.439H35.89Z" fill="url(#c)"/><path d="M36.729 16.378a.723.723 0 0 0-.634-.728c-.034 0-.12-.016-.17-.016h-1.627v1.49h1.626c.052 0 .154 0 .171-.018a.723.723 0 0 0 .634-.728Z" fill="url(#d)"/><path d="M18.672 8.439c-1.711 0-3.115 1.371-3.115 3.08v7.602c.873.423 1.78.694 2.687.694 1.079 0 1.66-.643 1.66-1.524v-3.588h2.67v3.571c0 1.389-.872 2.523-3.833 2.523-1.797 0-3.2-.39-3.2-.39v6.484h4.569c1.712 0 3.115-1.371 3.115-3.08V8.438h-4.553Z" fill="url(#e)"/><path d="M27.281 8.439c-1.711 0-3.115 1.371-3.115 3.08v4.03c.787-.66 2.157-1.083 4.365-.982 1.18.05 2.447.373 2.447.373v1.303c-.633-.322-1.386-.61-2.362-.677-1.677-.119-2.687.694-2.687 2.116 0 1.439 1.01 2.251 2.687 2.116.976-.068 1.729-.372 2.362-.677v1.303s-1.25.322-2.447.373c-2.208.101-3.578-.322-4.365-.982v7.11h4.57c1.711 0 3.115-1.371 3.115-3.081V8.439h-4.57Z" fill="url(#f)"/></g><defs><linearGradient id="b" x1="32.772" y1="18.852" x2="40.463" y2="18.852" gradientUnits="userSpaceOnUse"><stop stop-color="#007940"/><stop offset=".229" stop-color="#00873F"/><stop offset=".743" stop-color="#40A737"/><stop offset="1" stop-color="#5CB531"/></linearGradient><linearGradient id="c" x1="32.772" y1="17.666" x2="40.464" y2="17.666" gradientUnits="userSpaceOnUse"><stop stop-color="#007940"/><stop offset=".229" stop-color="#00873F"/><stop offset=".743" stop-color="#40A737"/><stop offset="1" stop-color="#5CB531"/></linearGradient><linearGradient id="d" x1="32.772" y1="16.376" x2="40.463" y2="16.376" gradientUnits="userSpaceOnUse"><stop stop-color="#007940"/><stop offset=".229" stop-color="#00873F"/><stop offset=".743" stop-color="#40A737"/><stop offset="1" stop-color="#5CB531"/></linearGradient><linearGradient id="e" x1="15.554" y1="17.666" x2="23.364" y2="17.666" gradientUnits="userSpaceOnUse"><stop stop-color="#1F286F"/><stop offset=".475" stop-color="#004E94"/><stop offset=".826" stop-color="#0066B1"/><stop offset="1" stop-color="#006FBC"/></linearGradient><linearGradient id="f" x1="24.122" y1="17.666" x2="31.707" y2="17.666" gradientUnits="userSpaceOnUse"><stop stop-color="#6C2C2F"/><stop offset=".173" stop-color="#882730"/><stop offset=".573" stop-color="#BE1833"/><stop offset=".859" stop-color="#DC0436"/><stop offset="1" stop-color="#E60039"/></linearGradient><clipPath id="a"><path fill="#fff" d="M0 0h56v36H0z"/></clipPath></defs></svg>