<svg width="80" height="80" fill="none" xmlns="http://www.w3.org/2000/svg"><path d="M76.757 74.536H3.243a1.081 1.081 0 0 1-1.08-1.08V46.773a1.081 1.081 0 0 1 1.08-1.081h73.514a1.08 1.08 0 0 1 1.081 1.081v26.681a1.081 1.081 0 0 1-1.081 1.081ZM4.325 72.374h71.35V47.855H4.326v24.519Z" fill="currentColor"/><path d="M40 74.54a1.081 1.081 0 0 1-1.08-1.08V46.77a1.081 1.081 0 0 1 2.161 0v26.69a1.081 1.081 0 0 1-1.08 1.08ZM44.907 66.314a1.081 1.081 0 0 1-1.081-1.081v-9.854a1.081 1.081 0 0 1 2.162 0v9.854a1.08 1.08 0 0 1-1.081 1.08ZM35.088 66.314a1.08 1.08 0 0 1-1.08-1.081v-9.854a1.081 1.081 0 0 1 2.161 0v9.854a1.08 1.08 0 0 1-1.08 1.08ZM68.305 47.85H50.839a1.081 1.081 0 0 1-1.081-1.08v-3.916a1.081 1.081 0 0 1 1.08-1.081h17.467a1.081 1.081 0 0 1 1.08 1.081v3.916a1.081 1.081 0 0 1-1.08 1.08ZM51.92 45.69h15.303v-1.754H51.92v1.754Z" fill="currentColor"/><path d="M64.54 43.94h-9.926a1.08 1.08 0 0 1-1.081-1.08v-3.52a1.08 1.08 0 0 1 1.08-1.08h3.008a1.081 1.081 0 0 1 0 2.162h-1.924v1.356h7.762v-1.356h-1.924a1.081 1.081 0 0 1 0-2.162h3.005a1.081 1.081 0 0 1 1.081 1.08v3.52a1.08 1.08 0 0 1-1.08 1.08ZM29.157 47.85H11.69a1.08 1.08 0 0 1-1.081-1.08v-3.916a1.081 1.081 0 0 1 1.08-1.081h17.467a1.081 1.081 0 0 1 1.08 1.081v3.916a1.081 1.081 0 0 1-1.08 1.08ZM12.772 45.69h15.304v-1.754H12.772v1.754Z" fill="currentColor"/><path d="M25.383 43.94H15.46a1.081 1.081 0 0 1-1.082-1.08v-3.52a1.08 1.08 0 0 1 1.082-1.08h3.006a1.081 1.081 0 0 1 0 2.162h-1.925v1.356h7.76v-1.356h-1.923a1.081 1.081 0 0 1 0-2.162h3.007a1.081 1.081 0 0 1 1.081 1.08v3.52a1.083 1.083 0 0 1-1.083 1.08ZM61.027 7.632h-3.135a1.081 1.081 0 0 1 0-2.162h3.135a1.081 1.081 0 0 1 0 2.162Z" fill="currentColor"/><path d="M76.757 30.032H3.243a1.08 1.08 0 0 1-1.08-1.08v-22.4a1.081 1.081 0 0 1 1.08-1.082h47.081a1.081 1.081 0 0 1 0 2.162h-46V27.87h71.352V7.632h-7.081a1.081 1.081 0 1 1 0-2.162h8.162a1.08 1.08 0 0 1 1.081 1.081v22.4a1.081 1.081 0 0 1-1.081 1.081Z" fill="currentColor"/><path d="M40 30.034a1.081 1.081 0 0 1-1.08-1.082V6.54a1.081 1.081 0 0 1 2.161 0v22.412a1.08 1.08 0 0 1-1.08 1.081ZM63.467 24.688h-7.791a1.081 1.081 0 0 1 0-2.162h7.79a1.08 1.08 0 1 1 0 2.162h.001ZM24.324 24.688H16.53a1.081 1.081 0 0 1 0-2.162h7.795a1.08 1.08 0 1 1 0 2.162Z" fill="currentColor"/></svg>
