<svg width="56" height="36" fill="none" xmlns="http://www.w3.org/2000/svg"><path d="M0 4a4 4 0 0 1 4-4h48a4 4 0 0 1 4 4v28a4 4 0 0 1-4 4H4a4 4 0 0 1-4-4V4Z" fill="#E5E7EB"/><path fill-rule="evenodd" clip-rule="evenodd" d="M28 26.02a10.946 10.946 0 0 1-7.082 2.58C14.888 28.6 10 23.765 10 17.8 10 11.835 14.888 7 20.918 7c2.702 0 5.175.971 7.082 2.58A10.945 10.945 0 0 1 35.082 7C41.112 7 46 11.835 46 17.8c0 5.965-4.888 10.8-10.918 10.8-2.702 0-5.175-.971-7.082-2.58Z" fill="#ED0006"/><path fill-rule="evenodd" clip-rule="evenodd" d="M28 26.02c2.348-1.98 3.836-4.928 3.836-8.22 0-3.292-1.488-6.24-3.836-8.22A10.945 10.945 0 0 1 35.082 7C41.112 7 46 11.835 46 17.8c0 5.965-4.888 10.8-10.918 10.8-2.703 0-5.175-.971-7.082-2.58Z" fill="#F9A000"/><path fill-rule="evenodd" clip-rule="evenodd" d="M28 26.02c2.348-1.98 3.836-4.928 3.836-8.22 0-3.291-1.488-6.239-3.836-8.22-2.347 1.981-3.836 4.929-3.836 8.22 0 3.291 1.489 6.24 3.836 8.22Z" fill="#FF5E00"/><path d="M4 1h48v-2H4v2Zm51 3v28h2V4h-2Zm-3 31H4v2h48v-2ZM1 32V4h-2v28h2Zm3 3a3 3 0 0 1-3-3h-2a5 5 0 0 0 5 5v-2Zm51-3a3 3 0 0 1-3 3v2a5 5 0 0 0 5-5h-2ZM52 1a3 3 0 0 1 3 3h2a5 5 0 0 0-5-5v2ZM4-1a5 5 0 0 0-5 5h2a3 3 0 0 1 3-3v-2Z" fill="#E5E7EB"/></svg>