<svg xmlns="http://www.w3.org/2000/svg" xmlns:xlink="http://www.w3.org/1999/xlink">
	<symbol id="jcbs" viewBox="0 0 56 36" fill="none" xmlns="http://www.w3.org/2000/svg"><g clip-path="url(#a)"><path d="M0 4a4 4 0 0 1 4-4h48a4 4 0 0 1 4 4v28a4 4 0 0 1-4 4H4a4 4 0 0 1-4-4V4Z" fill="#E5E7EB"/><path d="M4 1h48v-2H4v2Zm51 3v28h2V4h-2Zm-3 31H4v2h48v-2ZM1 32V4h-2v28h2Zm3 3a3 3 0 0 1-3-3h-2a5 5 0 0 0 5 5v-2Zm51-3a3 3 0 0 1-3 3v2a5 5 0 0 0 5-5h-2ZM52 1a3 3 0 0 1 3 3h2a5 5 0 0 0-5-5v2ZM4-1a5 5 0 0 0-5 5h2a3 3 0 0 1 3-3v-2Z" fill="#E5E7EB"/><g clip-path="url(#b)" fill-rule="evenodd" clip-rule="evenodd"><path d="M43.3 24.56a4.22 4.22 0 0 1-1.37 3.14 4.74 4.74 0 0 1-3.34 1.3H13V11.44c0-1.18.5-2.3 1.38-3.14A4.87 4.87 0 0 1 17.71 7h25.6v17.56Z" fill="#fff"/><path d="M34.96 18.38h1.97c.07 0 .15.01.22.03a.84.84 0 0 1 .65.59c.07.2.04.4-.06.6a.83.83 0 0 1-.24.28.89.89 0 0 1-.34.16h-.07l-.16.02h-1.97v-1.68Zm2.62-1.89a.76.76 0 0 1-.33.82c-.1.06-.2.1-.32.12h-.06l-.14.01h-1.77V15.9h1.8l.16.01h.01c.14.02.28.08.39.17a.76.76 0 0 1 .26.41Zm4.03-8.01h.01v15.86a3.1 3.1 0 0 1-.8 2.05l-.02.04-.1.1-.03.03-.03.03-.04.03-.03.03-.2.16-.03.03-.03.02-.03.02-.04.03-.03.02-.03.02-.03.02-.03.02-.04.02-.1.06-.03.02-.03.01-.03.02-.04.02-.03.01-.03.02-.03.02-.04.01-.03.02-.03.01-.03.01-.03.02-.04.01-.03.01-.03.02h-.03l-.04.02-.03.01-.03.01-.04.01-.03.01-.03.01-.03.01-.04.01-.03.01h-.03l-.03.02h-.03l-.04.01h-.03l-.03.02h-.07l-.03.01h-.03l-.04.01h-.03l-.03.01-.03.01h-.07l-.03.01h-.06l-.04.01h-5.2v-6.46H38.8l.04-.01h.06l.04-.01h.03l.03-.01h.07l.03-.02h.06l.03-.01.04-.01h.03l.13-.04.03-.01.1-.03.03-.02h.04l.03-.02c.24-.1.46-.24.65-.41.12-.13.22-.28.3-.43.07-.18.1-.36.1-.55 0-.2-.05-.41-.14-.6-.09-.17-.2-.32-.36-.43a2.37 2.37 0 0 0-.55-.31l-.03-.02-.04-.01-.03-.02a3.07 3.07 0 0 0-.13-.04h-.03l-.04-.01a2.56 2.56 0 0 0-.19-.05h-.06l-.04-.01h-.03l-.03-.01h-.07l-.03-.01h-.03l-.04-.01h-.06v-.04h.03l.03-.01h.04l.03-.01h.03l.04-.01.03-.01H39c.2-.06.38-.13.55-.22.18-.1.33-.24.46-.4a1.31 1.31 0 0 0-.3-1.88c-.1-.08-.23-.15-.35-.2a2.3 2.3 0 0 0-.26-.09h-.03a2.8 2.8 0 0 0-.07-.02l-.03-.01-.07-.01-.03-.01h-.03L38.8 15h-.03l-.03-.01h-.03l-.04-.01h-.06l-.03-.01h-.03l-.04-.01h-.16l-.03-.01h-5.01v-3.3c0-.65.2-1.27.59-1.8l.03-.04.07-.09.03-.04.03-.03.03-.04.03-.04.04-.03.03-.04.06-.06.04-.03.03-.03.03-.03.03-.03.04-.03.03-.03.13-.1.03-.02.03-.03.07-.04.03-.02.03-.03.04-.02.03-.02.03-.02.04-.02.03-.02.03-.01.03-.02.04-.02.03-.01.03-.02.03-.02.03-.01.04-.02.03-.01.03-.02.03-.01.04-.01.03-.02.03-.01.04-.01.03-.01.03-.02.03-.01.04-.01.03-.01.03-.01.03-.01.03-.01h.04l.03-.02h.03l.03-.01.04-.01.03-.01h.03l.04-.01.03-.01h.03l.03-.01h.04l.03-.01h.03l.03-.01h.03l.04-.01h.03l.03-.01h.1l.03-.01h5.17v-.01Z" fill="url(#c)"/><path d="m14.75 19.52-.07-.03v-7.84c0-.64.21-1.26.6-1.79l.03-.04.03-.05.03-.04.03-.04.04-.03a3 3 0 0 1 .06-.08l.03-.03.03-.03.04-.04.06-.06.03-.03.04-.03.03-.03.03-.03.03-.03.04-.02.03-.03.16-.12.03-.03a3 3 0 0 1 .13-.08l.04-.02.03-.02.03-.02.03-.01.04-.02.03-.02.03-.02.03-.01.03-.02.04-.01.03-.02.03-.01.03-.02.04-.01.03-.02h.03l.04-.02.03-.01.03-.02h.03l.04-.02.03-.01.03-.01.03-.01.03-.01.04-.01.03-.01h.03l.03-.02h.04l.03-.01.03-.01h.03l.04-.02h.06l.03-.01.04-.01h.03l.03-.01h.03l.04-.01h.06l.03-.01h.07l.03-.01h.16l.04-.01h5.02v15.86a3.08 3.08 0 0 1-.77 2.03l-.04.03-.03.04-.03.03-.03.04-.04.03-.1.1-.02.02-.04.03-.03.02-.03.03-.04.03-.03.02-.03.03-.03.02-.04.03-.03.02-.03.02-.03.03-.04.02-.03.02-.03.02-.03.02-.03.02-.04.02-.03.01-.03.02-.03.02-.07.03-.03.02-.04.01-.03.02-.03.02h-.03l-.04.02-.03.02-.03.01-.03.01-.03.02h-.04l-.03.02-.03.01-.03.01-.04.01-.03.01-.03.01-.03.01-.04.01-.03.01-.03.01h-.03l-.03.02h-.04l-.03.01h-.03l-.04.02h-.06l-.03.01h-.04l-.03.01h-.03l-.03.01h-.04l-.03.01h-.03l-.03.01h-.13l-.03.01h-5.14v-6.68l.07.02h.04l.03.02h.03l.03.01h.04l.03.02h.03l.03.01h.03l.04.01h.03l.03.02h.07l.03.01.03.01h.04l.03.01h.03l.03.01h.04l.03.02h.06l.03.01h.04l.03.01h.03l.03.01h.04l.03.01h.03l.03.01h.04l.03.01h.03l.03.01H16l.03.01h.03l.03.01h.07l.03.01h.03l.04.01h.06l.03.01h.07l.03.01h.03l.03.01h.1l.03.01h.07l.03.01h.07l.03.01h.1l.03.01h.1l.03.01h.1l.03.01h.16l.03.01h.2l.03.01H18.81l.03-.01h.13l.04-.01h.09l.03-.01h.04l.03-.01h.1l.03-.01h.03l.03-.01h.07l.03-.01h.03l.03-.01h.04l.03-.01h.03l.03-.01h.04l.03-.01h.03l.04-.01.03-.01h.03l.03-.01.04-.01h.03l.03-.01.03-.01h.03l.04-.02h.03l.03-.01h.03l.04-.02h.03l.03-.01.03-.01.04-.01.03-.01.03-.01.04-.01.03-.01.03-.01.03-.01.03-.02h.04l.03-.02.03-.01.03-.01.04-.02h.03l.03-.02.03-.02h.04l.03-.02.03-.02.03-.01.03-.02.04-.02.1-.05.03-.02.03-.02.03-.02.04-.02.03-.02.03-.02.03-.02.04-.02.1-.08.02-.03.04-.02.03-.03.06-.06.04-.03.03-.04c.21-.22.37-.49.45-.77a2.24 2.24 0 0 0 .12-.8v-3.68h-2.9v3.68c0 .2-.04.4-.1.6a1.5 1.5 0 0 1-1.07.9h-.04l-.2.05H17.9l-.03.01h-.07l-.06.01H17.22l-.03-.01h-.1l-.03-.01h-.07l-.03-.01h-.03l-.03-.01h-.07l-.03-.01h-.03l-.04-.01h-.03l-.03-.01h-.04l-.03-.01-.03-.01h-.03l-.04-.01-.03-.01h-.03l-.03-.01-.03-.01h-.04l-.03-.02h-.06l-.04-.02h-.03l-.03-.01-.03-.01h-.04l-.03-.02h-.03l-.04-.02h-.03l-.03-.01-.03-.01-.03-.01-.04-.01-.03-.01-.03-.01-.03-.01-.04-.01-.03-.01-.03-.01-.03-.02h-.04l-.03-.02h-.03l-.03-.02-.03-.01-.04-.01-.03-.01-.03-.02h-.03l-.04-.02-.03-.01-.03-.02h-.04l-.03-.02-.03-.01-.03-.02-.04-.01-.03-.01-.03-.02-.03-.01-.03-.01-.04-.02-.03-.01-.03-.02-.03-.01-.04-.02Z" fill="url(#d)"/><path d="m24.07 15.75-.07.06v-4.16c0-.64.2-1.26.59-1.79l.03-.04.03-.05.04-.04.03-.03.03-.04.07-.08.03-.03.03-.03.07-.07.03-.03.03-.03.03-.03.03-.03.04-.03.03-.03.03-.02.04-.03c.1-.08.2-.15.32-.22l.03-.03.03-.01.04-.02.03-.02.03-.02.03-.02.04-.01.03-.02.03-.01.04-.02.03-.02.03-.01.03-.02.04-.01.03-.01.03-.02h.03l.03-.02.04-.01.03-.01.03-.02h.03l.04-.02h.03l.03-.02h.03l.04-.02h.03l.03-.02h.03l.03-.01h.04l.03-.02h.07l.03-.02h.06l.04-.01h.03l.03-.01h.03l.04-.01h.03l.03-.01h.1l.03-.01h5.19v15.86c0 .61-.2 1.21-.55 1.73l-.03.05-.16.2-.04.04-.03.04-.03.03-.03.03-.04.04-.03.03-.03.03-.07.06-.03.03-.03.03-.03.03-.04.03-.03.02-.03.03-.03.02-.04.03-.03.02-.03.02-.03.02-.04.03-.03.02-.03.02-.03.02-.04.02-.03.02-.03.02-.03.02-.04.01-.03.02-.03.02-.03.01-.04.02-.03.02-.03.01-.03.02-.03.01-.04.02h-.03l-.03.02-.03.02h-.04l-.03.02-.03.01-.04.01-.03.01-.03.01-.03.02h-.04l-.03.02h-.03l-.03.01-.03.01-.04.01h-.03l-.03.02h-.03l-.04.01h-.03l-.03.01h-.03l-.04.02h-.06l-.03.01h-.04l-.03.01h-.06l-.04.01h-.06l-.03.01H24V20.2l.13.1.04.03.03.02.06.05.04.02.03.02.03.02.04.02.03.02.03.02.03.01.04.02.03.02.03.02.03.01.03.02.04.01.03.02.03.02h.03l.04.02.03.02.03.01.03.02.04.01.03.01.03.02h.03l.03.02.04.01.03.01.03.02h.04l.03.02h.03l.03.02.04.01.03.01.03.01.03.01h.04l.03.02h.03l.03.02h.03l.04.01.03.01h.03l.03.02h.04l.03.01h.03l.04.02h.03l.03.01.03.01H26l.03.01h.03l.03.02h.07l.03.01h.03l.03.01h.04l.03.01h.03l.03.01h.04l.03.01h.03l.03.01h.03l.04.01h.06l.04.01h.03l.03.01h.07l.03.01h.06l.04.01h.09l.03.01h.1l.03.01h.14l.03.01h.19l.03.01H28.81l.03-.01h.1l.03-.01h.13l.03-.01h.07l.03-.01h.1l.03-.01h.07l.03-.01h.07l.03-.01h.03l.03-.01h.07l.03-.01h.03l.03-.01h.07l.03-.01h.03l.04-.01h.03l.03-.01h.03l.03-.01h.04l.03-.01h.03l.04-.01h.03l.03-.01h.03l.04-.01h.03l.03-.01h.03l.04-.01.03-.01h.03l.03-.01h.03l.04-.01h.03l.03-.01.03-.01h.04l.03-.01h.03l.03-.01.04-.01h.03l.03-.01.04-.01h.03l.03-.01.03-.01h.03l.04-.02h.06l.03-.02h.04l.03-.01h.03l.03-.02V19.5l-.03.02-.03.01-.03.02-.04.01-.03.02-.03.01-.03.02-.04.01-.03.02h-.03l-.03.02-.03.02h-.04l-.03.02-.03.02-.04.01-.03.01-.03.02h-.03l-.04.02-.03.01-.03.01-.03.02h-.04l-.03.02h-.03l-.03.02-.03.01-.04.01-.03.01-.03.01-.03.02h-.04l-.03.02h-.03l-.03.01-.04.01-.03.01-.03.01-.04.01h-.03l-.03.02h-.03l-.03.01-.04.01h-.03l-.03.02h-.03l-.04.01-.03.01h-.03l-.03.01-.04.01h-.03l-.03.01h-.03l-.03.02h-.07l-.03.01h-.04l-.03.01h-.03l-.03.01h-.04l-.03.01h-.06l-.04.01h-.03l-.03.01h-.06l-.04.01h-.09l-.04.01h-.16l-.03.01h-.55l-.04-.01H28l-.03-.01h-.04l-.03-.01h-.03l-.03-.01h-.04l-.03-.01h-.03l-.03-.01h-.04l-.03-.02h-.03l-.03-.01h-.03l-.04-.02h-.03l-.1-.04h-.03l-.03-.02h-.03l-.04-.02-.03-.01-.03-.02h-.04l-.03-.02a2.67 2.67 0 0 1-.1-.05L27 19.9l-.03-.01-.03-.02a2.44 2.44 0 0 1-.07-.04l-.03-.02-.03-.02-.03-.02-.04-.02-.03-.03a2 2 0 0 1-.03-.02l-.03-.03a1.95 1.95 0 0 1-.1-.08l-.03-.03a1.92 1.92 0 0 1-.55-1.05 2.49 2.49 0 0 1 .29-1.73c.1-.15.22-.29.35-.4l.04-.03.03-.02.13-.1.03-.02.03-.02a2 2 0 0 1 .07-.04l.03-.01.03-.02.04-.02.1-.04.02-.02h.04l.03-.02.03-.01.04-.02h.03l.03-.02.03-.01.1-.03h.03l.04-.02h.03l.03-.01h.03l.03-.02h.07l.03-.01h.03l.04-.01h.03l.03-.01h.03l.04-.01h.06l.03-.01h.1l.03-.01h.1l.03-.01h.46l.03.01h.1l.03.01H29l.03.01h.07l.03.01h.07l.03.01h.03l.03.01h.04l.03.01h.03l.03.01h.04l.03.01h.03l.03.01.04.01h.03l.03.01.03.01h.04l.03.01.03.01h.03l.04.02h.03l.03.01h.03l.04.02H30l.03.01.03.01.03.01.04.01h.03l.03.02.04.01.03.01h.03l.03.02h.04l.03.02.03.01.03.01.03.01.04.01.03.01.03.02h.03l.04.02.03.01.03.01.03.02.04.01.03.01.03.02h.03l.04.02.03.01.03.02.03.01.04.02h.03l.03.02.03.02.04.01.03.02.03.01.03.02.04.01.03.02.03.01v-1.34h-.03l-.03-.01-.04-.01h-.03l-.03-.02h-.03l-.04-.01h-.03l-.03-.01-.03-.01H31l-.03-.02h-.06l-.04-.01-.03-.01h-.03l-.03-.01h-.04l-.03-.01-.03-.01h-.03l-.04-.01h-.03l-.03-.01h-.03l-.04-.01-.03-.01h-.03l-.03-.01h-.03l-.04-.01h-.03l-.03-.01h-.03l-.04-.01h-.03l-.03-.01h-.04l-.03-.01h-.03l-.03-.01h-.04l-.03-.01h-.03l-.03-.01h-.03l-.04-.01h-.06l-.03-.01h-.04l-.03-.01h-.06l-.04-.01h-.06l-.03-.01h-.07l-.03-.01h-.07l-.03-.01h-.1l-.03-.01h-.1L29 14.8h-.09l-.04-.01h-.16l-.03-.01H28.39l-.04-.01H27.45l-.04.01h-.13l-.03.01h-.13l-.03.01h-.1l-.03.01h-.07l-.03.01h-.06l-.04.01h-.06l-.03.01h-.04l-.03.01h-.07l-.03.01h-.03l-.03.01h-.03l-.04.01h-.03l-.03.01h-.03l-.04.01h-.03l-.03.01-.03.01h-.04l-.03.01h-.03l-.03.02h-.07l-.03.01-.03.01h-.03l-.04.02h-.03l-.03.01h-.04l-.03.02h-.03l-.03.01-.04.01h-.03l-.03.02h-.03l-.03.02h-.04l-.03.02h-.03l-.03.02h-.04l-.03.02h-.03l-.03.02-.04.01-.03.01-.03.01-.04.02h-.03l-.03.02-.03.01-.03.02-.04.01-.03.01-.03.02-.03.01-.04.02-.03.01-.03.02-.03.01-.04.02-.03.01-.03.02-.03.02-.04.02-.03.01-.06.04-.03.02-.04.02-.03.02-.03.02-.04.02a3.6 3.6 0 0 0-.06.04l-.03.02-.1.08Z" fill="url(#e)"/></g></g><defs><linearGradient id="c" x1="33.32" y1="18" x2="41.62" y2="18" gradientUnits="userSpaceOnUse"><stop stop-color="#007B40"/><stop offset="1" stop-color="#55B330"/></linearGradient><linearGradient id="d" x1="14.68" y1="18" x2="22.99" y2="18" gradientUnits="userSpaceOnUse"><stop stop-color="#1D2970"/><stop offset="1" stop-color="#006DBA"/></linearGradient><linearGradient id="e" x1="24" y1="18" x2="32.31" y2="18" gradientUnits="userSpaceOnUse"><stop stop-color="#6E2B2F"/><stop offset="1" stop-color="#E30138"/></linearGradient><clipPath id="a"><path fill="#fff" d="M0 0h56v36H0z"/></clipPath><clipPath id="b"><path fill="#fff" transform="translate(13 7)" d="M0 0h30.31v22H0z"/></clipPath></defs></symbol>
</svg>
                            