<svg width="60" height="36" fill="none" xmlns="http://www.w3.org/2000/svg"><path d="M0 4a4 4 0 0 1 4-4h52a4 4 0 0 1 4 4v28a4 4 0 0 1-4 4H4a4 4 0 0 1-4-4V4Z" fill="#E5E7EB"/><path d="M13.4 12.002H9.9a.487.487 0 0 0-.48.41l-1.416 8.98a.293.293 0 0 0 .289.339h1.671c.24 0 .443-.175.48-.412l.383-2.422a.487.487 0 0 1 .48-.411h1.109c2.305 0 3.636-1.117 3.984-3.329.157-.968.006-1.728-.447-2.26-.497-.585-1.38-.895-2.55-.895H13.4Zm.404 3.28c-.191 1.257-1.151 1.257-2.08 1.257h-.528l.37-2.348a.292.292 0 0 1 .29-.246h.242c.632 0 1.227 0 1.536.36.184.215.24.534.17.976v.001Zm10.059-.04h-1.677a.292.292 0 0 0-.288.247l-.074.469-.117-.17c-.363-.527-1.173-.703-1.98-.703-1.853 0-3.434 1.404-3.743 3.373-.16.982.068 1.921.625 2.576.51.603 1.242.853 2.111.853 1.493 0 2.32-.961 2.32-.961l-.074.466a.291.291 0 0 0 .287.338h1.51c.24 0 .443-.175.48-.412l.906-5.74a.29.29 0 0 0-.288-.336h.002Zm-2.337 3.264c-.161.958-.921 1.602-1.89 1.602-.488 0-.877-.156-1.126-.452-.248-.294-.342-.713-.263-1.179.15-.95.924-1.614 1.878-1.614.477 0 .863.158 1.118.456.255.301.357.722.284 1.187Zm11.263-3.264h-1.684c-.16 0-.311.08-.402.213l-2.324 3.424-.984-3.29a.488.488 0 0 0-.467-.347h-1.655c-.2 0-.34.196-.276.385l1.854 5.449-1.744 2.463a.292.292 0 0 0 .238.461h1.681c.16 0 .31-.078.4-.21l5.603-8.09a.291.291 0 0 0-.24-.458Z" fill="#283B82"/><path d="M38.365 12.002h-3.5a.487.487 0 0 0-.48.41l-1.416 8.98a.291.291 0 0 0 .287.337h1.796a.34.34 0 0 0 .335-.287l.402-2.546a.487.487 0 0 1 .48-.412h1.108c2.306 0 3.635-1.116 3.983-3.328.157-.968.007-1.729-.446-2.26-.496-.585-1.378-.895-2.55-.895l.001.001Zm.404 3.28c-.191 1.257-1.15 1.257-2.079 1.257h-.527l.371-2.348a.291.291 0 0 1 .287-.247h.243c.632 0 1.228 0 1.536.36.184.215.24.535.17.977l-.001.001Zm10.059-.04h-1.676a.29.29 0 0 0-.287.246l-.074.47-.117-.17c-.363-.527-1.172-.703-1.979-.703-1.852 0-3.433 1.404-3.741 3.373-.16.982.067 1.92.623 2.576.512.603 1.242.853 2.111.853 1.493 0 2.32-.961 2.32-.961l-.074.466a.292.292 0 0 0 .288.337h1.509c.24 0 .443-.174.48-.411l.907-5.74a.292.292 0 0 0-.29-.336Zm-2.337 3.264c-.16.958-.921 1.602-1.89 1.602-.487 0-.876-.157-1.126-.453-.248-.293-.34-.712-.263-1.178.152-.95.924-1.614 1.878-1.614.477 0 .863.158 1.118.456.257.301.358.722.284 1.187Zm4.312-6.258-1.436 9.145a.291.291 0 0 0 .287.336H51.1c.24 0 .444-.174.48-.411l1.417-8.98A.292.292 0 0 0 52.71 12h-1.618a.29.29 0 0 0-.287.247" fill="#469BDB"/><path d="M4 1h52v-2H4v2Zm55 3v28h2V4h-2Zm-3 31H4v2h52v-2ZM1 32V4h-2v28h2Zm3 3a3 3 0 0 1-3-3h-2a5 5 0 0 0 5 5v-2Zm55-3a3 3 0 0 1-3 3v2a5 5 0 0 0 5-5h-2ZM56 1a3 3 0 0 1 3 3h2a5 5 0 0 0-5-5v2ZM4-1a5 5 0 0 0-5 5h2a3 3 0 0 1 3-3v-2Z" fill="#E5E7EB"/></svg>