<svg width="56" height="36" fill="none" xmlns="http://www.w3.org/2000/svg"><path d="M0 4a4 4 0 0 1 4-4h48a4 4 0 0 1 4 4v28a4 4 0 0 1-4 4H4a4 4 0 0 1-4-4V4Z" fill="#E5E7EB"/><path fill-rule="evenodd" clip-rule="evenodd" d="M19.28 23.907h-3.029l-2.271-9.31c-.108-.428-.337-.806-.674-.985a9.395 9.395 0 0 0-2.776-.985v-.359h4.88c.673 0 1.178.539 1.262 1.164l1.179 6.715 3.027-7.879h2.945L19.28 23.907Zm6.227 0h-2.861l2.356-11.639h2.86l-2.355 11.639Zm6.056-8.415c.085-.626.59-.985 1.179-.985a5.01 5.01 0 0 1 2.776.537l.505-2.506A6.804 6.804 0 0 0 33.415 12c-2.776 0-4.796 1.612-4.796 3.85 0 1.701 1.43 2.595 2.44 3.133 1.094.537 1.515.896 1.43 1.433 0 .805-.841 1.163-1.682 1.163-1.01 0-2.02-.268-2.945-.717l-.505 2.508c1.01.447 2.103.627 3.113.627 3.114.088 5.048-1.523 5.048-3.94 0-3.044-3.955-3.222-3.955-4.564Zm13.967 8.415-2.272-11.639h-2.44c-.504 0-1.01.359-1.178.896l-4.206 10.743h2.945l.588-1.701h3.618l.337 1.7h2.608Zm-4.29-8.505.84 4.387h-2.355l1.515-4.387Z" fill="#1733D5"/><path d="M4 1h48v-2H4v2Zm51 3v28h2V4h-2Zm-3 31H4v2h48v-2ZM1 32V4h-2v28h2Zm3 3a3 3 0 0 1-3-3h-2a5 5 0 0 0 5 5v-2Zm51-3a3 3 0 0 1-3 3v2a5 5 0 0 0 5-5h-2ZM52 1a3 3 0 0 1 3 3h2a5 5 0 0 0-5-5v2ZM4-1a5 5 0 0 0-5 5h2a3 3 0 0 1 3-3v-2Z" fill="#E5E7EB"/></svg>