<svg width="40" height="40" fill="none" xmlns="http://www.w3.org/2000/svg"><path d="M32.5 40h-25A7.5 7.5 0 0 1 0 32.5v-25A7.5 7.5 0 0 1 7.5 0h25A7.5 7.5 0 0 1 40 7.5v25a7.5 7.5 0 0 1-7.5 7.5Z" fill="#E5E7EB"/><path d="m29.558 14.941.024.163a2.537 2.537 0 0 0-1.723-1.76l-.018-.004c-1.559-.424-7.832-.424-7.832-.424s-6.259-.007-7.833.424a2.534 2.534 0 0 0-1.736 1.746l-.004.018c-.582 3.042-.586 6.697.027 9.956l-.027-.165a2.537 2.537 0 0 0 1.724 1.76l.018.004c1.557.424 7.832.424 7.832.424s6.257 0 7.832-.424a2.534 2.534 0 0 0 1.737-1.746l.003-.018c.267-1.415.418-3.043.418-4.706l-.001-.184.001-.192c0-1.665-.151-3.293-.442-4.872Zm-11.552 8.101v-6.077l5.223 3.044-5.223 3.034Z" fill="#9CA3AF"/></svg>